<?xml version="1.0" encoding="utf-8"?>
<!-- Generator: Adobe Illustrator 16.0.0, SVG Export Plug-In . SVG Version: 6.00 Build 0)  -->
<!DOCTYPE svg PUBLIC "-//W3C//DTD SVG 1.1//EN" "http://www.w3.org/Graphics/SVG/1.1/DTD/svg11.dtd">
<svg version="1.1" id="Layer_1" xmlns="http://www.w3.org/2000/svg" xmlns:xlink="http://www.w3.org/1999/xlink" x="0px" y="0px"
	 width="200px" height="200px" viewBox="0 0 200 200" enable-background="new 0 0 200 200" xml:space="preserve">
<path fill="#010101" d="M58.064,102.501c0,0-6.336-15.028,5.433-39.112c0,0-0.544-15.572,0-17.204c0,0-0.362-3.982,0.543-3.982
	c0,0,2.535,6.517,4.707,20.46l-0.905,1.812c0,0-2.898,8.329-4.525,14.849c0,0-3.258,3.982-3.258,11.59L58.064,102.501z"/>
<path fill="#010101" d="M75.994,49.807c0,0-3.802,10.503-6.702,12.133l-5.068,16.115c0,0,2.716-2.896,4.347-1.81l0.903-1.451
	c0,0,3.622-0.543,5.614,2.353c0,0,4.888-4.706,9.417,5.978c0,0,11.951,3.622,6.337-4.527c0,0-6.52-7.784-6.52-13.58
	c0,0-0.904-3.441-2.718-4.708C81.606,60.309,75.994,52.522,75.994,49.807z"/>
<path fill="#010101" d="M58.064,104.131c0,0,0.545,4.709,2.175,7.423c0,0,4.525-5.796,4.891-8.328c0,0,1.446-1.989,2.171-1.811
	c0.724,0.181,15.392-6.882,16.118-12.857c0,0,1.81-1.266,2.353-0.906c0,0-4.707-12.313-9.778-10.503l-1.449,0.906
	c0,0-2.716-2.896-4.891-2.173l-1.083,1.267c0,0-6.7-0.724-7.788,13.4C60.782,90.549,59.335,101.598,58.064,104.131z"/>
<path fill="#010101" d="M86.859,35.138c0,0-6.519,4.709-10.14,13.765c0,0-1.086,1.266,4.527,9.415
	C81.247,58.316,81.97,43.467,86.859,35.138z"/>
<path fill="#010101" d="M82.33,55.963c0,0,1.269,3.078,19.196,11.771c0,0,2.534,9.053,6.52,13.037c0,0-9.778,0-16.116-2.718
	c0,0-6.338-8.509-6.156-13.219c0,0-1.993-5.794-3.802-5.612L82.33,55.963z"/>
<path fill="#010101" d="M88.488,34.052c0,0,1.268,3.441,3.442,5.977l0.361,1.449c0,0-2.355,11.953-1.811,13.942
	c0,0,1.085,5.253,1.993,5.977l-9.053-5.431C83.419,55.963,81.606,46.365,88.488,34.052z"/>
<path fill="#010101" d="M93.017,47.271c0,0,3.078,5.794,11.587,7.604c0,0,3.441,1.269,2.718,3.62c0,0,1.81,9.6,3.802,12.858
	c0,0-4.707,0.724-7.423-2.172c0,0-1.812-3.623-4.168-3.623l-5.792-3.08C93.741,62.483,89.213,51.979,93.017,47.271z"/>
<path fill="#010101" d="M89.574,32.966c0,0,3.078-12.493,15.211-16.66c0,0,6.879,7.969,2.715,18.289l-5.25-3.44
	c0,0,3.981-5.431-1.27-7.243l-2.174-1.81c0,0-7.968,2.173-7.606,15.392C91.203,37.493,89.756,36.044,89.574,32.966z"/>
<path fill="#010101" d="M150.239,22.102c0,0,1.446-0.543,1.446-3.261c0,0,2.354-3.44,0-4.89c-2.35-1.447,0.364-2.353,0.364-2.353
	l-0.904-0.906c0,0-3.985,2.354-7.245,4.164c0,0-2.714,2.898-2.714,3.622L150.239,22.102z"/>
<path fill="#010101" d="M115.474,70.814l9.413,8.509c0,0,10.686,0.18,17.929-7.245l0.725-1.629c0,0-3.263-1.631-3.263-2.355
	c0,0-9.053-2.716-10.319-0.36c0,0,0,1.449-0.542,2.172C129.414,69.906,123.436,71.716,115.474,70.814z"/>
<path fill="#010101" d="M107.139,18.84c0,0,4.525-8.329,16.48-8.691c0,0,2.352,0,0.543,5.251c0,0-1.266,0.906-2.354,1.449
	l-1.27-0.723l0.725-1.447c0,0-1.449-1.086-1.996-3.441c0,0-7.963,8.875-9.23,17.567C110.037,28.802,109.676,18.66,107.139,18.84z"/>
<path fill="#010101" d="M132.128,22.825c0,0,5.252-4.891,6.521-4.891l1.629,1.269l9.6,4.164c0,0,3.44,10.323,0.727,12.676
	c0,0-11.407,1.992-13.22,4.708c0,0-5.973-1.993-7.605-1.269c0,0-0.723-3.982,1.086-8.511
	C130.86,30.974,133.212,23.188,132.128,22.825z"/>
<path fill="#010101" d="M127.424,17.754c0,0,2.895-10.14,15.209-15.754l1.268,1.087c0,0-12.678,5.25-11.589,17.746l-1.449,1.812
	c0,0,1.266,1.266-1.446,8.872l-0.547-12.493L127.424,17.754z"/>
<path fill="#010101" d="M119.996,17.394c0,0-5.611,17.021-4.705,21.548l-0.727,3.259c0,0,6.52-1.994,7.062,1.992l6.339,1.087
	c0,0,1.449-21.367-0.364-26.256C127.603,19.023,123.801,17.211,119.996,17.394z"/>
<path fill="#010101" d="M103.701,70.814c0,0,4.345,9.778,5.431,9.413c0,0,13.217,3.078,16.295,0.726c0,0-11.589-9.596-11.404-10.321
	C114.022,70.629,110.037,74.073,103.701,70.814z"/>
<path fill="#010101" d="M85.229,84.214l1.086,2.533c0,0,9.417,0.726,14.125-2.353C100.44,84.394,93.56,85.118,85.229,84.214z"/>
<path fill="#010101" d="M92.292,79.141c0,0,1.449,2.535,0.726,3.624v0.723c0,0,11.587,1.629,20.821-1.63l-4.887-0.906
	C108.951,80.951,105.328,82.945,92.292,79.141z"/>
<path fill="#010101" d="M98.447,22.825c0,0,1.449,2.172,3.984,3.802c0,0-7.24,19.736-4.887,23.358l-5.071-4.891
	c0,0,1.629-5.613-0.543-7.06C91.93,38.036,91.566,27.172,98.447,22.825z"/>
<path fill="#010101" d="M101.707,32.423c0,0,3.801,2.715,5.795,4.164c0,0,3.805,1.449,3.622,6.7l1.63,12.496
	c0,0,1.449,2.713-4.525,1.81c0,0,1.629-3.622-5.252-4.527c0,0-3.441-0.36-4.164-2.173c-0.726-1.809-0.18-0.724-0.18-0.724
	S97.905,45.097,101.707,32.423z"/>
<path fill="#010101" d="M118.55,13.592c0,0-6.157,7.061-9.778,21.366c0,0,3.623,2.355,3.438,10.504
	c-0.18,8.149,2.178-2.173,2.178-2.173l-0.904-0.543l0.904-3.621c0,0-0.725-3.985,0.182-6.52l4.706-17.204L118.55,13.592z"/>
<polygon fill="#010101" points="155.913,18.945 158.705,20.425 160.349,18.781 161.661,16.644 159.691,15.166 "/>
<path fill="#010101" d="M160.675,20.917l4.272-3.286c0,0,0.33-1.971-1.479-1.479l-1.151,0.657L160.675,20.917z"/>
<path fill="#010101" d="M164.947,21.247c0,0,2.138-3.288,3.451-3.288c0,0,1.811,1.477-2.466,4.765L164.947,21.247z"/>
<path fill="#010101" d="M152.227,20.473l3.807,1.085c0,0,1.085-2.898,0.36-4.347c0,0,0.362-2.717,0.904-2.717l-2.354-3.622
	l-2.718-0.18l0.725,1.086c0,0-1.99,1.269,0.362,2.174c0,0,0.727,3.984-0.903,5.071L152.227,20.473z"/>
<path fill="#010101" d="M138.828,41.476c0,0,6.879,2.717,15.396,1.631c0,0,1.081,2.898,1.629,2.898c0,0-6.16,5.069-14.486,6.156
	l-0.544-2.175c0,0-0.725-4.345-3.078-3.441l-8.511-2.174c0,0-0.544-2.353,0.545-3.621L138.828,41.476z"/>
<path fill="#010101" d="M152.048,21.196c0,0,6.699,2.717,8.511,1.992c0,0,0.902,5.977,1.627,5.794c0,0-2.174,3.258-9.419,3.258
	l-1.989-9.053L152.048,21.196z"/>
<path fill="#010101" d="M149.668,17.959c0,0,6.899-3.285,7.722-3.285l0.987,0.819l-5.094,5.753L149.668,17.959z"/>
<polygon fill="#010101" points="165.086,13.953 169.431,11.958 171.064,16.669 165.446,19.204 "/>
<polygon fill="#010101" points="160.742,11.418 164.179,13.592 164.363,21.919 156.938,21.558 157.845,15.582 "/>
<path fill="#010101" d="M165.446,19.204l7.059-2.898l0.547,0.905c0,0-1.989,3.622-3.257,4.165l-4.349,0.543V19.204z"/>
<path fill="#010101" d="M161.825,23.188l2.538-1.268c0,0-0.185-0.181,1.083,0h3.624c0,0-3.262,5.615-5.977,6.159
	C163.094,28.078,161.285,25.903,161.825,23.188z"/>
<path fill="#010101" d="M115.291,43.467c0,0,3.977-1.809,4.523,1.089l0.908,0.904l7.06,0.725l1.449-0.725l7.243,2.535
	c0,0,3.074-0.724,3.257,3.439v5.251c0,0-8.871,1.631-26.438-4.889l-0.542-2.353C112.754,49.444,116.012,44.736,115.291,43.467z"/>
<path fill="#010101" d="M113.479,53.248c0,0,1.995,5.432-3.441,5.249l-1.629,0.363l2.176,0.544c0,0,6.336,2.173,14.667,0l2.533,3.08
	c0,0,8.33,0.542,18.285-3.624c0,0-3.074-6.154-5.428-6.52v4.527c0,0-0.906,1.627-4.523,1.269L113.479,53.248z"/>
<path fill="#010101" d="M112.754,49.444l0.544,2.353l21.91,4.889c0,0,4.161,1.631,4.707-1.087l-0.546-5.613
	c0,0,0.182-2.896-4.884-3.078l-5.252-1.449l-7.79-0.18c0,0-2.176-4.165-6.152-1.812C115.291,43.467,114.022,48.176,112.754,49.444z"
	/>
<path fill="#010101" d="M133.396,19.927c0,0,0.185-9.778,9.055-14.847l4.343-0.362c0,0,2.542,4.166,2.356,6.157l-6.52,3.26
	l-2.173,3.622l-1.266-1.631L133.396,19.927z"/>
<path fill="#010101" d="M139.192,40.391c0,0,9.235-3.44,10.866-3.44c0,0,9.953-4.165,10.864-5.434c0,0-7.06,7.063-16.118,10.321
	L139.192,40.391z"/>
<path fill="#010101" d="M152.048,42.201c0,0,4.165-4.165,4.346-5.614c0,0-8.33,5.25-9.96,5.25L152.048,42.201z"/>
<path fill="#010101" d="M153.315,32.966v1.267c0,0,6.521-2.353,6.7-3.078C160.012,31.154,153.859,33.691,153.315,32.966z"/>
<path fill="#010101" d="M161.661,14.508c0,0,2.138-0.658,2.798,0.166l-0.164,0.655c0,0-1.647,0.164-1.81,0.823L161.661,14.508z"/>
<path fill="#010101" d="M166.101,15.66c0,0,1.643,0,1.643,1.316l-2.628,2.629L166.101,15.66z"/>
<path fill="#010101" d="M157.845,35.318l1.991,2.175c0,0,2.538,1.992,0.36,6.7l-3.074,7.787c0,0-1.085,5.07-7.062,0.906
	l-3.082-1.267c0,0,5.432-1.086,9.419-4.708l0.364-1.629c0,0-1.813-1.993-1.27-2.353l-1.995-0.906
	C153.493,42.018,158.205,36.587,157.845,35.318z"/>
<path fill="#010101" d="M143.355,52.885l2.896-0.543l6.881,3.078l2.355,0.726c0,0,3.259,1.087,1.449,2.898l-3.986,4.708
	c0,0-8.328,5.975-11.229,4.345c0,0-0.542-3.982-5.067-5.251c0,0,8.326-2.535,10.135-3.258
	C146.794,59.585,144.623,53.428,143.355,52.885z"/>
<path fill="#010101" d="M129.233,63.567l1.085,2.718c0,0,5.616-0.363,9.597,0.723c0,0-3.62-3.983-4.888-3.983L129.233,63.567z"/>
<path fill="#010101" d="M57.163,69.724c0,0-8.874,8.329-11.409,55.95c0,0-2.898,34.778-0.904,53.422l2.897,22.094h9.418
	l0.723-23.183l-1.627-0.541c0,0-5.614-6.883,3.802-63.923c0,0-10.324-15.391-1.449-42.553L57.163,69.724z"/>
<path fill="#010101" d="M109.132,60.309c0,0,1.269,7.786,2.717,9.958l1.63-1.267l2.354,0.724c0,0,11.769,0.543,12.493-0.906
	c0,0,1.993-3.076-3.44-8.147C124.885,60.671,110.939,62.118,109.132,60.309z"/>
</svg>
