<?xml version="1.0" encoding="utf-8"?>
<!-- Generator: Adobe Illustrator 16.0.0, SVG Export Plug-In . SVG Version: 6.00 Build 0)  -->
<!DOCTYPE svg PUBLIC "-//W3C//DTD SVG 1.1//EN" "http://www.w3.org/Graphics/SVG/1.1/DTD/svg11.dtd">
<svg version="1.1" id="Layer_1" xmlns="http://www.w3.org/2000/svg" xmlns:xlink="http://www.w3.org/1999/xlink" x="0px" y="0px"
	 width="200px" height="200px" viewBox="0 0 200 200" enable-background="new 0 0 200 200" xml:space="preserve">
<path fill="#010101" d="M85.948,198.983c0,0-5.615-38.004,0-38.004c5.618,0,37.202-9.169,44.207-11.465
	c7.024-2.296,23.158-6.229,17.546-8.523c-5.614-2.289-20.343,5.575-25.965,3.931c-5.609-1.636,5.622-11.464,31.577-13.1
	c0,0,32.28-11.795,23.859-15.727c-8.418-3.933-16.131,2.288-18.238,3.602c-2.104,1.312-3.518,5.567-5.621,2.618
	c-2.108-2.948,4.208-6.88,6.313-9.829c2.104-2.949,9.817-7.092,2.81-7.641c-7.02-0.545-7.02,0.107-9.123,3.057
	c-2.108,2.948-7.715,7.533-9.82,9.829s-22.448,14.743-23.863,13.43c-1.398-1.305,7.024-8.516,4.918-10.481
	c-2.104-1.966-11.401-3.479-18.246,17.04l-2.805,7.532l-16.142,6.578c0,0-11.224,6.193,0.699-20.339c0,0,68.069-39.645,76.49-39.318
	c0,0,39.994-12.452,31.574-18.349c0,0-2.811-4.585-17.544,5.57c0,0-14.722,5.898-7.01-2.948c0,0,14.736-12.778,8.423-14.417
	c0,0-11.94-3.601-20.36,17.366c0,0-5.609,9.503-11.926,10.486c0,0-11.233,9.829,0-8.52c0,0,7.007-8.52,0-8.846
	c0,0-4.208-7.227-20.349,23.59c0,0,2.642-4.903-4.976,8.092c-8.21,3.021-32.917,13.729-32.917,14.84
	c0,1.312-10.532-7.533-0.698-19.657c0,0,14.029-17.036,20.343-23.59c0,0,16.84-4.915,44.209-19.002c0,0,33.678-18.349,34.385-21.297
	c0,0,11.231-8.52,1.399-6.881c0,0-16.843,10.156-21.051,11.139c0,0-12.63,6.554-5.61-2.292c0,0,11.219-12.451,8.424-13.761
	c0,0-7.716-4.258-14.029,5.897c0,0-9.691,11.528-9.13,20.642c0,0-21.047,15.074-25.965,14.417c0,0-9.82,0.19,5.616-41.845
	c0,0,23.039-9.597,12.571-12.546c0,0-4.146-2.949-11.874,2.292c0,0-3.502,5.241-6.313-7.207c0,0-10.528-7.864-9.82,12.121
	c0,0,0.708,26.539-4.916,28.831c0,0-2.104,6.55-8.42-6.554c0,0,4.917-15.07-2.803-14.744c0,0-7.015,0.656-7.015,4.258
	c0,0,0,4.258-2.104,3.605c0,0-23.863-14.743-25.969-13.76c0,0-12.63,2.292,0,9.829c0,0,21.052,8.846,35.787,21.298
	c0,0,9.129,6.224,7.721,12.122c0,0-23.164,28.504-25.96,30.47c0,0,3.504,9.835-14.736-3.275c0,0-9.817-1.965-8.419-8.52
	c0,0-7.73-3.275,16.84-17.036c0,0,11.231-3.275-2.812-3.275c0,0-11.924,6.88-8.422-3.932c0,0,1.92-7.863-6.758-2.292
	c0,0-7.269,11.795-7.976,16.053c0,0-2.106,12.122-6.316,1.966c0,0-17.547-11.139-16.132-19.658c0,0-4.918-5.571-10.526-6.224
	c0,0-6.315,2.292-3.51,9.829c0,0,20.351,22.607,25.958,24.899c0,0,11.023,9.708,30.178,20.044c0,0,11.232,3.874,7.712,26.481
	c0,0,3.504,12.448-9.818,5.244c0,0-22.456-11.142-24.561-20.641c0,0,4.21-10.705-4.21-11.085c0,0-4.91-3.551-4.91,3.44
	c0,0-7.729,10.271,6.315,20.753c0,0,29.471,21.615,30.169,24.242c0,0-1.406,30.141,2.104,32.106c0,0,1.342,14.744,0.642,17.04
	C68.354,201.271,85.948,198.983,85.948,198.983z"/>
</svg>
