<?xml version="1.0" encoding="utf-8"?>
<!-- Generator: Adobe Illustrator 16.0.0, SVG Export Plug-In . SVG Version: 6.00 Build 0)  -->
<!DOCTYPE svg PUBLIC "-//W3C//DTD SVG 1.1//EN" "http://www.w3.org/Graphics/SVG/1.1/DTD/svg11.dtd">
<svg version="1.1" id="Layer_1" xmlns="http://www.w3.org/2000/svg" xmlns:xlink="http://www.w3.org/1999/xlink" x="0px" y="0px"
	 width="200px" height="200px" viewBox="0 0 200 200" enable-background="new 0 0 200 200" xml:space="preserve">
<path fill="#010101" d="M183.706,171.555l7.087-27.286l-10.923,19.464l4.441-32.184l-8.791,18.989
	c-2.985-3.237-7.242-5.273-11.995-5.273c-0.992,0-1.966,0.094-2.912,0.264c1.874-4.33,2.912-9.104,2.912-14.123
	c0-19.653-15.913-35.58-35.549-35.58c-8.149,0-15.662,2.748-21.661,7.365c-3.666-7.027-11.007-11.828-19.478-11.828
	c-12.035,0-21.804,9.687-21.96,21.696c-2.346-0.858-4.879-1.324-7.521-1.324c-12.131,0-21.965,9.845-21.965,21.987
	c0,4.919,1.613,9.46,4.34,13.122c-4.442,0.566-8.292,3.014-10.754,6.506l-13.465-23.235l10.84,36.988l-0.475,0.057l-15.669-10.25
	l10.351,19.958c-4.568,2.271-7.101,4.771-7.101,7.4c0,10.346,39.182,18.732,87.516,18.732c48.331,0,87.514-8.387,87.514-18.732
	c0-2.412-2.132-4.72-6.018-6.837l8.323-14.622L183.706,171.555z"/>
</svg>
