<?xml version="1.0" encoding="utf-8"?>
<!-- Generator: Adobe Illustrator 16.0.0, SVG Export Plug-In . SVG Version: 6.00 Build 0)  -->
<!DOCTYPE svg PUBLIC "-//W3C//DTD SVG 1.1//EN" "http://www.w3.org/Graphics/SVG/1.1/DTD/svg11.dtd">
<svg version="1.1" id="Layer_1" xmlns="http://www.w3.org/2000/svg" xmlns:xlink="http://www.w3.org/1999/xlink" x="0px" y="0px"
	 width="200px" height="200px" viewBox="0 0 200 200" enable-background="new 0 0 200 200" xml:space="preserve">
<g id="Layer_2">
	<path fill="#010101" d="M195.118,147.212c-4.54-13.05-4.54-31.776-16.456-37.451c-11.916-5.674-1.702-19.859-22.13-23.832
		c-20.428-3.971-21.287-12.746-35.181-14.753c-13.051-1.889,4.073-6.966-38.018-12.485C41.532,53.209,39.11,95.994,34.535,96.71
		c-9.08,1.418-26.103,17.591-26.67,21.562c-0.567,3.974-7.376,3.404-5.106,12.483c2.27,9.079-3.405,17.591,5.674,19.293
		c9.08,1.702,7.484,5.108,9.982,6.81c2.499,1.702,26.333,19.291,36.548,20.995c10.214,1.703,21.562,20.429,34.045,20.996
		c12.483,0.567,17.024,6.807,31.776,2.836c14.753-3.973,39.72,0,52.204-11.916C185.472,177.854,199.657,160.263,195.118,147.212z
		 M29.379,124.703c-0.682,0.896-4.687-0.388-3.216-1.322C28.245,122.055,30.062,123.807,29.379,124.703z M38.556,118.686
		c3.593-2.082,3.666,1.107,3.216,1.888C41.214,121.545,37.075,119.54,38.556,118.686z M39.358,130.969
		c-2.554,0.638-4.183-2.7-3.122-4.752c1.986-3.829,6.749-2.286,7.804-1.268C45.245,126.111,41.911,130.33,39.358,130.969z
		 M79.247,88.651c2.718-1.135,2.684,0.893,2.196,1.702C81.077,90.954,77.04,89.57,79.247,88.651z M67.062,91.604
		c3.021-0.851,3.789-1.985,4.819,0S64.402,92.353,67.062,91.604z M62.339,81.106c0.708-3.833,4.255-5.108,7.66-4.824
		c3.405,0.284,1.419,8.512,0,9.363C68.58,86.499,61.63,84.938,62.339,81.106z M82.954,163.17
		c-1.513,4.045-10.213,3.523-13.997,1.632c-3.784-1.891-5.681-10.432,0-10.3C81.819,154.794,84.468,159.128,82.954,163.17z
		 M93.549,150.853c-0.497,1.501-3.689,3.38-6.055,0c0,0-1.891-3.83,1.7-5.228C92.786,144.228,93.918,149.729,93.549,150.853z
		 M106.032,136.898c-1.421,1.318-4.522-2.172-2.271-2.452C106.032,134.162,107.45,135.58,106.032,136.898z M100.641,130.605
		c-7.375,1.55-15.31-1.897-9.363-8.929c3.122-3.688,14.755-2.271,19.293,0C115.108,123.948,108.018,129.054,100.641,130.605z
		 M150.052,100.612c8.195,0.461,3.761,1.634,2.058,1.772C150.408,102.525,145.894,100.379,150.052,100.612z M138.942,106.924
		c1.064-0.604,6.241-1.134,8.803,0c2.559,1.135-2.277,3.404-6.289,3.688C137.441,110.897,137.878,107.528,138.942,106.924z
		 M138.231,137.376c5.346-2.272,10.267,4.211,9.413,5.673c-2.648,4.538-8.133,1.892-10.971,0.945
		C133.837,143.047,135.374,138.593,138.231,137.376z M130.432,150.853c9.362,3.357,3.12,7.708,0,7.425
		C127.309,157.993,126.799,149.549,130.432,150.853z M131.637,186.364c-2.581,2.838-5.285-4.672-3.742-5.294
		C132.979,179.01,134.215,183.527,131.637,186.364z M140.077,182.393c-1.326,0-1.24-1.143,0-1.392
		C140.645,180.887,141.401,182.393,140.077,182.393z M143.481,176.719c-3.254-1.007-7.944,2.271-12.482,0
		c-4.542-2.271-9.178-7.838-3.747-11.352c6.438-4.162,3.747-1.133,16.229-1.133C155.965,164.234,147.745,178.039,143.481,176.719z
		 M153.128,150.049c-0.759,0.569-6.109,1.477-4.101,0C152.117,147.781,153.885,149.479,153.128,150.049z M153.802,110.903
		c-0.11-3.124,2.572-1.983,5.408-2.111c2.837-0.128,0.2,3.558-0.898,3.52C157.212,112.271,153.892,113.496,153.802,110.903z
		 M156.989,172.746c-0.678,0-2.319-3.28,0-2.395C159.999,171.51,157.666,172.746,156.989,172.746z M158.994,161.46
		c-1.017-0.674-2.692-1.566-1.703-3.281c0.659-1.146,4.727-1.701,6.809,0C166.181,159.881,160.903,162.725,158.994,161.46z
		 M179.229,148.903c-3.12,5.687-14.402,5.681-15.568,3.413c-1.168-2.268-6.073-3.118-3.339-9.077
		C162.247,139.055,182.35,143.219,179.229,148.903z"/>
</g>
</svg>
