<?xml version="1.0" encoding="utf-8"?>
<!-- Generator: Adobe Illustrator 16.0.0, SVG Export Plug-In . SVG Version: 6.00 Build 0)  -->
<!DOCTYPE svg PUBLIC "-//W3C//DTD SVG 1.1//EN" "http://www.w3.org/Graphics/SVG/1.1/DTD/svg11.dtd">
<svg version="1.1" id="Layer_1" xmlns="http://www.w3.org/2000/svg" xmlns:xlink="http://www.w3.org/1999/xlink" x="0px" y="0px"
	 width="200px" height="200px" viewBox="0 0 200 200" enable-background="new 0 0 200 200" xml:space="preserve">
<g>
	<path fill="#010101" d="M67.131,110.343c19.066,5.895,23.908,18.422,23.085,35.781c-1.804,37.906-24.757,52.217-17.952,55.459
		c7.403,3.525,18.688-15.316,24.06-56.379c2.293-17.561,14.952-21.256,30.242-20.983c5.093,0.436,11.475,0.966,17.917,1.454
		c9.973,1.148,19.848,2.393,27.83,1.44c0.77-0.025,1.369-0.071,1.752-0.149c7.987-1.604,14.85-5.108,19.475-13.571
		c3.382-7.063,0.907-11.15-3.868-13.905c1.519-3.373,7.094-5.679,5.876-10.199c-0.356-2.328-4.548-3.897-5.593-5.768
		c-0.854-2.196-0.121-3.47-0.663-5.479c-2.099-11.816-7.595-16.261-18.841-10.012c-0.222-1.823,0.451-5.584-0.567-7.117
		c-1.587-2.402-4.509-1.751-4.778-2.752c-1.218-4.522,5.693-9.874,4.844-15.032c-0.846-5.161-6.66-7.542-11.008-8.887
		c-6.387-1.988-4.32-2.075-8.046-5.916c-2.771-3.295-14.105-9.403-17.939-8.645c-2.646,0.174-2.787,2.636-4.804,3.176
		c-4.196,1.398-5.056-0.796-9.479-1.221c-7.936-0.6-10.042,13.769-11.828,28.905c-0.314,2.625-1.585,1.888-1.825-0.149
		c-1.528-14.996-6.381-25.877-15.529-31.146c-5.094-2.933-29.648-11.174-33.364-3.954c-1.323,2.56-0.735,4.714-0.125,7.573
		c0.047,0.199-5.109,0.026-6.714,2.075c-1.601,2.046,0.535,4.972,0.571,7.114c-0.013,2.965-2.298,5.466-2.125,8.113
		c0.089,2.651,3.041,5.955,4.761,9.074c0.527,0.96-0.572,1.077-1.218,0.605c-6.523-4.73-10.812-11.599-18.822-10.424
		c-6.981,1.068-16.417,4.922-19.926,11.009c-0.921,1.597-0.53,3.338-0.836,4.399c-0.624,2.186-1.876,0.874-2.387,3.399
		c-0.466,2.279,1.001,1.956,0.599,4.485c-0.519,3.349-4.978,1.983-5.972,6.319C-1.614,99.906,47.924,104.402,67.131,110.343z"/>
</g>
</svg>
