<?xml version="1.0" encoding="utf-8"?>
<!-- Generator: Adobe Illustrator 16.0.0, SVG Export Plug-In . SVG Version: 6.00 Build 0)  -->
<!DOCTYPE svg PUBLIC "-//W3C//DTD SVG 1.1//EN" "http://www.w3.org/Graphics/SVG/1.1/DTD/svg11.dtd">
<svg version="1.1" id="Layer_1" xmlns="http://www.w3.org/2000/svg" xmlns:xlink="http://www.w3.org/1999/xlink" x="0px" y="0px"
	 width="200px" height="200px" viewBox="0 0 200 200" enable-background="new 0 0 200 200" xml:space="preserve">
<path fill="#010101" d="M92.297,199.983c0,0-2.622-38.004,0-38.004c2.623,0,17.371-9.169,20.641-11.465
	c3.28-2.296,10.813-6.229,8.193-8.523c-2.622-2.289-9.499,5.575-12.124,3.931c-2.619-1.636,2.625-11.464,14.744-13.1
	c0,0,15.073-11.795,11.141-15.727c-3.931-3.933-7.532,2.288-8.516,3.602c-0.982,1.312-1.643,5.567-2.625,2.618
	c-0.984-2.948,1.965-6.88,2.948-9.829c0.982-2.949,4.584-7.092,1.312-7.641c-3.277-0.545-3.277,0.107-4.26,3.057
	c-0.984,2.948-3.603,7.533-4.585,9.829c-0.983,2.296-10.482,14.743-11.143,13.43c-0.653-1.305,3.279-8.516,2.296-10.481
	c-0.982-1.966-5.323-3.479-8.52,17.04l-1.31,7.532l-7.537,6.578c0,0-5.241,6.193,0.327-20.339c0,0,31.784-39.645,35.715-39.318
	c0,0,18.675-12.452,14.743-18.349c0,0-1.312-4.585-8.192,5.57c0,0-6.874,5.898-3.272-2.948c0,0,6.881-12.778,3.933-14.417
	c0,0-5.575-3.601-9.507,17.366c0,0-2.619,9.503-5.568,10.486c0,0-5.245,9.829,0-8.52c0,0,3.271-8.52,0-8.846
	c0,0-1.965-7.227-9.502,23.59c0,0,1.233-4.903-2.323,8.092c-3.834,3.021-15.37,13.729-15.37,14.84c0,1.312-4.918-7.533-0.326-19.657
	c0,0,6.55-17.036,9.499-23.59c0,0,7.863-4.915,20.643-19.002c0,0,15.726-18.349,16.056-21.297c0,0,5.244-8.52,0.653-6.881
	c0,0-7.864,10.156-9.829,11.139c0,0-5.897,6.554-2.62-2.292c0,0,5.238-12.451,3.934-13.761c0,0-3.603-4.258-6.551,5.897
	c0,0-4.525,11.528-4.263,20.642c0,0-9.828,15.074-12.124,14.417c0,0-4.585,0.19,2.622-41.845c0,0,10.758-9.597,5.87-12.546
	c0,0-1.936-2.949-5.544,2.292c0,0-1.636,5.241-2.948-7.207c0,0-4.916-7.864-4.585,12.121c0,0,0.33,26.539-2.296,28.831
	c0,0-0.982,6.55-3.932-6.554c0,0,2.296-15.07-1.309-14.744c0,0-3.275,0.656-3.275,4.258c0,0,0,4.258-0.983,3.605
	c0,0-11.142-14.743-12.125-13.76c0,0-5.897,2.292,0,9.829c0,0,9.83,8.846,16.71,21.298c0,0,4.262,6.224,3.605,12.122
	c0,0-10.816,28.504-12.121,30.47c0,0,1.636,9.835-6.881-3.275c0,0-4.584-1.965-3.931-8.52c0,0-3.609-3.275,7.863-17.036
	c0,0,5.245-3.275-1.313-3.275c0,0-5.567,6.88-3.932-3.932c0,0,0.896-7.863-3.156-2.292c0,0-3.394,11.795-3.724,16.053
	c0,0-0.983,12.122-2.949,1.966c0,0-8.193-11.139-7.533-19.658c0,0-2.296-5.571-4.915-6.224c0,0-2.949,2.292-1.639,9.829
	c0,0,9.502,22.607,12.121,24.899c0,0,5.147,9.708,14.091,20.044c0,0,5.245,3.874,3.601,26.481c0,0,1.636,12.448-4.584,5.244
	c0,0-10.485-11.142-11.468-20.641c0,0,1.966-10.705-1.966-11.085c0,0-2.292-3.551-2.292,3.44c0,0-3.609,10.271,2.949,20.753
	c0,0,13.761,21.615,14.087,24.242c0,0-0.656,30.141,0.983,32.106c0,0,0.626,14.744,0.299,17.04
	C84.082,202.271,92.297,199.983,92.297,199.983z"/>
</svg>
