<?xml version="1.0" encoding="utf-8"?>
<!-- Generator: Adobe Illustrator 16.0.0, SVG Export Plug-In . SVG Version: 6.00 Build 0)  -->
<!DOCTYPE svg PUBLIC "-//W3C//DTD SVG 1.1//EN" "http://www.w3.org/Graphics/SVG/1.1/DTD/svg11.dtd">
<svg version="1.1" id="Layer_1" xmlns="http://www.w3.org/2000/svg" xmlns:xlink="http://www.w3.org/1999/xlink" x="0px" y="0px"
	 width="200px" height="200px" viewBox="0 0 200 200" enable-background="new 0 0 200 200" xml:space="preserve">
<g>
	<path fill="#010101" d="M131.414,185.148c-0.281,0.683-1.02,1.578-1.986,2.562l-0.004,0.004c-6.881,6.151-9.564,8.456-9.752,8.613
		h-0.002c-3.5,2.105-11.953,4.015-15.141,4.015c-0.17,0-0.32-0.008-0.441-0.019c-7.114-0.668-16.475-6.509-20.85-10.445
		c-4.698-4.227-9.697-12.889-6.86-18.153c2.606-4.847,19.964-7.761,24.108-7.763c-0.329,1.233,0.174,2.235,3.311,3.334
		c1.646,0.578,3.795,0.593,6.281,0.611c4.686,0.035,10.52,0.073,16.164,3.832C134.658,177.353,132.465,182.615,131.414,185.148z"/>
</g>
<g>
	<path fill="#010101" d="M192.01,168.586c-1.459,0.718-3.164,2.073-6.312,4.575c-0.512,0.41-1.066,0.852-1.664,1.321
		c-2.912,2.305-7.5,7.179-11.932,11.889c-3.82,4.062-7.43,7.894-9.301,9.348c-3.939,3.062-14.084,5.754-19.074,6.185
		c-4.863,0.424-10.391-0.565-14.787-2.646c-2.875-1.361-5.699-2.254-7.314-2.705c0.018-0.015,0.037-0.032,0.045-0.043
		c0.85-0.847,2.16-1.972,3.543-3.161c1.744-1.502,3.623-3.109,5.076-4.589c0.004-0.004,0.004-0.004,0.008-0.008
		c0.01-0.011,0.021-0.019,0.033-0.027c1.098-0.981,2.316-1.96,3.631-2.933c0.072-0.045,0.15-0.105,0.229-0.162
		c7.531-5.493,18.023-10.607,26.1-13.595c7.736-2.857,21.27-3.187,28.535-3.357C190.076,168.648,191.156,168.619,192.01,168.586z"/>
</g>
<g>
	<path fill="#010101" d="M191.861,167.234c-0.836,0.034-1.891,0.057-3.07,0.089c-5.697,0.135-15.184,0.365-22.865,1.825
		c4.596-3.065,10.543-6.962,11.801-7.519c1.912-0.851,6.832-1.023,8.383-0.059C186.16,161.604,190.5,164.524,191.861,167.234z"/>
</g>
<g>
	<path fill="#010101" d="M187.232,121.07c-3.002,7.513-15.867,38.538-27.545,49.742c-5.936,2.202-13.74,5.744-20.658,9.958
		c4.537-5.006,10.42-12.159,12.525-14.925c1.504-1.979,5.568-8.734,9.871-15.884c4.93-8.188,10.023-16.653,12.045-19.263
		C176.34,126.982,183.928,122.787,187.232,121.07z"/>
</g>
<g>
	<path fill="#010101" d="M151.016,152.386c-0.861,9.507-9.746,23.627-10.16,24.28c0,0.004,0,0.004-0.004,0.008
		c-3.008,3.456-5.848,6.544-7.285,7.719c-0.008,0.004-0.016,0.011-0.02,0.011c-0.178,0.132-0.355,0.263-0.535,0.395
		c1.139-2.975,2.416-8.561-6.02-14.187c-5.447-3.633-10.963-3.992-15.582-4.047c-1.738-17.354,11.383-27.895,17.152-31.646
		c2.396-1.557,4.428-1.697,6.393-1.834c1.607-0.113,3.125-0.218,4.645-1.084c1.869-1.067,2.135-2.594,2.312-3.608
		c0.172-0.981,0.176-1,0.873-0.899c1.205,0.166,2.264,1.756,3.197,3.159c0.891,1.347,1.668,2.515,2.697,2.565
		C149.82,134.008,151.881,142.865,151.016,152.386z"/>
	<path fill="#010101" d="M184.014,121.254c-3.812,2.126-9.188,5.468-11.619,8.613c-2.066,2.674-7.182,11.172-12.127,19.391
		c-4.285,7.12-8.334,13.845-9.791,15.765c-1.047,1.378-2.768,3.517-4.742,5.899c2.756-5.193,6.102-12.54,6.633-18.412
		c0.109-1.187,0.17-2.38,0.195-3.569l0.273,0.728c0.078-0.03,1.986-0.764,4.572-3.563c1.072-1.164,2.275-3.143,3.797-5.651
		c2.121-3.479,4.748-7.815,8.172-11.763c0.592-0.685,1.268-1.315,2.012-1.895l0.186-0.009c-0.004-0.04-0.008-0.084-0.008-0.128
		C175.238,123.835,180.354,122.165,184.014,121.254z"/>
</g>
<g>
	<path fill="#010101" d="M170.109,126.083c-0.635,0.532-1.223,1.105-1.754,1.723c-3.496,4.036-6.162,8.419-8.303,11.945
		c-1.426,2.347-2.658,4.372-3.639,5.434c-1.861,2.015-3.314,2.854-3.838,3.117c0.066-7.328-1.295-14.256-2.842-15.945
		c-0.299-0.326-0.627-0.492-0.975-0.492c-0.34,0-1.16-1.23-1.648-1.968c-1.092-1.643-2.326-3.498-4.133-3.752
		c-1.998-0.277-2.236,1.101-2.395,2.013c-0.096,0.529-0.186,1.066-0.484,1.568c-0.072-2.073-0.82-4.776-1.779-7.449
		c4.594-5.273,12.623-8.273,12.705-8.303l0.045-0.022c2.07-0.938,14.689-6.067,18.594-7.654c-0.418,2.29-1.25,7.221-1.25,10.014
		c0,2.365,0.715,5.44,1.236,7.685C169.834,124.795,170.004,125.524,170.109,126.083z"/>
</g>
<g>
	<path fill="#010101" d="M87.082,147.47c-1.735-2.172-3.496-3.979-5.087-4.898c-6.096-3.518-18.727-11.543-21.077-14.105
		c-1.347-1.467-1.874-1.967-2.522-1.836c-0.549,0.109-0.729,0.613-0.888,1.059c-0.094,0.271-0.204,0.575-0.389,0.898
		c-0.537,0.932-2.49,11.16-0.965,22.74c-2.807-5.27-6.331-14.475-7.489-24.588c-1.17-10.209-0.286-23.261,0.391-26.247
		c1.312,0.719,4.461,1.795,11.316,4.025c6.059,1.971,12.929,4.208,15.298,5.565c3.908,2.228,10.781,10.821,12.75,13.336
		C85.571,132.283,85.11,140.437,87.082,147.47z"/>
	<path fill="#010101" d="M95.398,163.119c-6.958,1.047-17.922,3.7-20.21,7.96c-1.441,2.675-1.19,5.948-0.045,9.151
		c-7.113-3.871-12.227-10.137-15.217-18.645c-5.036-14.347-2.305-30.934-1.629-32.322c0.23-0.407,0.373-0.787,0.475-1.071
		c0.376,0.351,0.929,0.949,1.149,1.193c2.538,2.769,15.467,10.939,21.398,14.361C86.581,146.783,94.334,161.113,95.398,163.119z"/>
</g>
<g>
	<path fill="#010101" d="M81.164,189.743c-4.355-0.391-13.833-3.943-19.053-6.953c-1.053-0.612-2.257-1.27-3.654-2.028
		c-6.119-3.334-15.368-8.376-23.098-15.821c-7.143-6.87-20.873-11.703-26.735-13.767c-0.428-0.153-0.849-0.301-1.231-0.438
		c0.879-0.314,2.038-0.752,3.467-1.296c2.729-1.044,5.818-2.217,6.992-2.451l0.468-0.1c2.115-0.437,4.514-0.931,12.186,0.107
		c7.636,1.031,25.042,11.034,27.282,12.334c0.115,0.405,0.237,0.813,0.367,1.223c3.197,10.179,9.174,17.444,17.777,21.602h0.003
		C77.271,185.022,79.215,187.723,81.164,189.743z"/>
</g>
<g>
	<path fill="#010101" d="M84.199,192.437c-6.425,0.781-30.027,3.186-37.372-2.522c-9.114-7.083-25.395-21.135-29.314-24.967
		c-3.427-3.347-8.493-9.649-10.513-12.91c0.35,0.122,0.738,0.263,1.177,0.414c5.777,2.038,19.311,6.803,26.242,13.471
		c7.863,7.565,17.21,12.659,23.395,16.029c1.385,0.755,2.582,1.412,3.622,2.011c5.236,3.021,16.033,7.164,20.54,7.164
		c0.215,0,0.415-0.011,0.602-0.029C83.062,191.527,83.607,191.977,84.199,192.437z"/>
</g>
<g>
	<path fill="#010101" d="M138.676,130.955c0,0.004,0,0.004,0,0.004c-1.172,0.591-2.4,0.673-3.812,0.77
		c-2.039,0.145-4.348,0.303-7.037,2.052c-3.824,2.488-10.77,7.859-14.799,16.149c-2.541-0.035-15.242,0.12-20.059,6.175
		c-1.091-1.801-2.349-3.775-3.674-5.664l0.215-0.09c-3.704-8.87-2.383-18.644,0.328-26.902l0.195-0.15
		c-0.016-0.021-0.049-0.067-0.101-0.135c0.931-2.796,2.018-5.416,3.121-7.759c5.024-10.701,11.745-18.957,13.268-20.584
		c1.682-1.789,2.035-3.945,2.297-5.513c0.158-0.933,0.303-1.809,0.654-2.031c0.248-0.153,0.738-0.057,1.105,0.047
		c2.66,0.783,14.717,15.515,22.201,25.257C134.592,116.459,139.436,126.966,138.676,130.955z"/>
	<path fill="#010101" d="M110.051,166.55c-2.346-0.019-4.375-0.033-5.805-0.533c-2.693-0.941-2.527-1.467-2.42-1.812
		c0.09-0.279,0.236-0.747-0.066-1.199c-0.246-0.368-0.715-0.399-1.265-0.399c-0.862,0-2.396,0.131-4.301,0.399l0.529-0.271
		c-0.126-0.245-1.289-2.458-2.999-5.361c3.794-5.513,15.225-6.05,18.678-6.079C110.533,155.628,109.49,160.716,110.051,166.55z"/>
</g>
</svg>
