<?xml version="1.0" encoding="utf-8"?>
<!-- Generator: Adobe Illustrator 16.0.0, SVG Export Plug-In . SVG Version: 6.00 Build 0)  -->
<!DOCTYPE svg PUBLIC "-//W3C//DTD SVG 1.1//EN" "http://www.w3.org/Graphics/SVG/1.1/DTD/svg11.dtd">
<svg version="1.1" id="Layer_1" xmlns="http://www.w3.org/2000/svg" xmlns:xlink="http://www.w3.org/1999/xlink" x="0px" y="0px"
	 width="200px" height="200px" viewBox="0 0 200 200" enable-background="new 0 0 200 200" xml:space="preserve">
<path fill="#010101" d="M134.246,86.025c0.089-4.156-0.205-8.452-1.035-12.904c-1,3.689-2.435,7.223-4.178,10.629
	c-0.227,1.066-6.918,13.205-19.627,27.138c-1.051,1.265-2.146,2.54-3.27,3.833c1.703-6.403,3.541-12.835,5.355-19.176
	c5.121-19.261,7.948-37.659,5.567-51.593c-1.892-13.938-8.442-23.417-8.731-24.845C105.117,13.573,101.032,8.036,95.87,2.5
	c2.722,5.536,4.462,11.073,5.414,16.609c-0.23,1.429,2.388,10.906,0.159,24.845c-1.373,10.247-5.428,22.907-10.526,36.544
	C88.27,63.415,80.159,52.067,79.35,51.086c-2.75-3.923-5.983-7.766-9.773-11.519c1.436,4.434,2.352,8.944,2.851,13.515
	c0.425,1.245,1.825,17.272-2.072,39.188c-3.333,21.769-9.508,49.435-3.535,70.63c5.993,22.994,20.036,34.871,27.319,37.396
	c0.038,0.023,0.078,0.047,0.117,0.07c0.123,0.069,0.252,0.142,0.375,0.211c0.098,0.023,0.193,0.041,0.29,0.064
	c0.477,0.11,0.905,0.166,1.297,0.166c0.04,0.016,0.083,0.035,0.125,0.047c0.168,0.049,0.341,0.093,0.514,0.144
	c0.111-0.051,0.225-0.095,0.336-0.144c0.035-0.018,0.059-0.041,0.092-0.054c0.053-0.004,0.105,0,0.155-0.004
	c0.109-0.012,0.219-0.02,0.325-0.033c0.061-0.068,0.123-0.138,0.184-0.212c0.139-0.154,0.262-0.329,0.371-0.516
	c2.916-2.944-0.271-14.197,4.193-30.515c3.818-16.163,16.075-34.365,23.186-51.06C133.595,102.126,134.537,87.295,134.246,86.025z
	 M116.864,110.876c-4.886,7.937-10.341,15.485-15.318,23.002c0.545-2.655,1.138-5.334,1.778-8.036
	C108.024,120.617,112.795,115.591,116.864,110.876z M111.149,59.559c-0.167,10.363-2.208,22.046-5.118,34.079
	c-2.958,11.133-5.637,21.026-7.646,29.831c-0.865,3.763-1.619,7.335-2.265,10.71c-0.786,4.127-1.405,7.973-1.881,11.548
	c-0.79,5.932-1.187,11.135-1.338,15.701c-0.047,1.363-0.075,2.674-0.082,3.93c-0.016,12.35,1.28,19.369,1.244,23.337
	c0,0.32-0.009,0.62-0.022,0.915c-0.111,0.397-0.236,0.76-0.379,1.072c-0.107-0.242-0.208-0.494-0.314-0.742
	c-1.151-2.718-2.127-5.432-2.938-8.146c-1.943-6.486-2.968-12.975-3.25-19.459c-0.08-1.801-0.094-3.604-0.064-5.406
	c0.062-3.871,0.361-7.748,0.859-11.617c0.518-4.019,1.241-8.033,2.126-12.052c0.458-2.074,0.957-4.145,1.49-6.219
	C97.32,104.549,107.355,82.053,111.149,59.559z M104.632,59.559c-2.285,15.134-7.451,30.269-12.194,45.399
	c-2.349,7.473-4.591,14.944-6.387,22.413c-1.245,5.201-2.273,10.399-2.968,15.603c-0.622,4.682-0.974,9.367-0.977,14.046
	c0,2.156,0.074,4.302,0.225,6.455c0.445,6.142,1.552,12.278,3.488,18.418c0.977,3.1,2.157,6.203,3.579,9.303
	c-0.479-0.442-0.973-0.95-1.479-1.504c-0.159-0.271-0.312-0.539-0.466-0.807c0.046,0.144,0.087,0.289,0.133,0.432
	c-0.174-0.199-0.352-0.406-0.528-0.62c-1.423-1.756-3.095-4.115-4.742-7.264c-2.698-5.206-5.416-12.584-6.094-23.026
	c-0.078-1.188-0.123-2.414-0.137-3.678c-0.123-8.647,1.258-19.198,5.089-32.066c1.374-4.623,3.051-9.553,5.033-14.792
	c1.701-4.507,3.627-9.245,5.749-14.23c0.095-0.237,0.188-0.471,0.288-0.71C97.031,81.15,101.637,69.719,104.632,59.559z
	 M85.691,94.38c-0.146,0.392-0.293,0.779-0.441,1.165c-0.625,1.508-1.234,3.022-1.837,4.54c0.49-5.407,0.869-10.792,0.958-16.123
	C84.979,87.239,85.403,90.733,85.691,94.38z M71.258,161.254c-5.451-22.486,2.65-52.854,6.525-75.353
	c0.053,12.182-1.354,24.625-2.146,37.052c-4.229,15.273-5.608,30.02-3.387,42.468C71.868,164.025,71.535,162.63,71.258,161.254z
	 M97.744,167.333c-0.054,0.201-0.105,0.388-0.154,0.587c0.041-6.158,0.527-12.947,1.527-20.127
	c6.428-11.473,15.209-22.58,22.766-34.591C114.931,130.387,101.939,150.511,97.744,167.333z"/>
</svg>
