<?xml version="1.0" encoding="utf-8"?>
<!-- Generator: Adobe Illustrator 16.0.0, SVG Export Plug-In . SVG Version: 6.00 Build 0)  -->
<!DOCTYPE svg PUBLIC "-//W3C//DTD SVG 1.1//EN" "http://www.w3.org/Graphics/SVG/1.1/DTD/svg11.dtd">
<svg version="1.1" id="Layer_1" xmlns="http://www.w3.org/2000/svg" xmlns:xlink="http://www.w3.org/1999/xlink" x="0px" y="0px"
	 width="100px" height="100px" viewBox="0 0 100 100" enable-background="new 0 0 100 100" xml:space="preserve">
<g id="Your_Icon">
	<path fill="#010101" d="M98.062,63.157c-0.201-0.345-0.397-0.681-0.59-1.011c-5.006-8.574-7-12.705-7-12.705
		c1.027-2.059,6.516-7.544,7.545-10.721c0.256-0.794-0.56-0.649-1.926,0.014c-4.099,1.989-14.158,8.701-14.158,8.701l-5.521,0.291
		c-11.315-9.944-20.575-14.402-20.575-14.402c-0.688-1.373-3.086-5.289-3.086-5.289c-3.086-0.488-5.486,4.26-5.486,4.26
		c-2.744-2.058-10.289-1.029-10.289-1.029c-4.115-1.372,0-3.086,0-3.086c-3.428-1.029-7.545,3.772-7.545,3.772l-10.286,2.4
		C3.372,44.983,2,49.441,2,49.441c6.172,9.602,21.261,11.316,21.261,11.316c0.342,5.143,3.772,8.229,3.772,8.229
		c2.186-3.512,0.109-9.187,1.029-8.571c4.051,2.709,19.889,3.771,19.889,3.771s9.601,18.176,6.859,8.916
		c-2.746-9.258,2.398-9.602,2.398-9.602c8.23-2.057,19.727-9.797,19.727-9.797c0.14-0.277,4.779-0.686,5.907-0.189
		C90.186,56.734,102.398,70.538,98.062,63.157z M15.333,42.833c-1.935,0-1.935-3,0-3S17.268,42.833,15.333,42.833z"/>
</g>
</svg>
