<?xml version="1.0" encoding="utf-8"?>
<!-- Generator: Adobe Illustrator 16.0.0, SVG Export Plug-In . SVG Version: 6.00 Build 0)  -->
<!DOCTYPE svg PUBLIC "-//W3C//DTD SVG 1.1//EN" "http://www.w3.org/Graphics/SVG/1.1/DTD/svg11.dtd">
<svg version="1.1" id="Layer_1" xmlns="http://www.w3.org/2000/svg" xmlns:xlink="http://www.w3.org/1999/xlink" x="0px" y="0px"
	 width="100px" height="100px" viewBox="0 0 100 100" enable-background="new 0 0 100 100" xml:space="preserve">
<path fill="#010101" d="M92.433,32.953c-4.585-0.26-8.492,7.547-8.492,7.547c-3.908,6.208-6.479,4.055-6.479,4.055
	c-2.015-0.27-2.675-1.477-2.675-1.477c2.015-1.232,2.813-8.362,2.813-8.362c1.077-2.171,2.831-4.056,2.831-4.056
	c1.198-1.085,1.477-2.97,1.477-2.97c-1.771,2.154-9.83,4.837-9.83,4.837c-2.293,0.269-13.478-1.085-13.478-1.085
	c-15.77-1.754-25.217,0.799-25.217,0.799c-4.707,0-14.537,4.594-14.537,4.594C10.493,42.219,2,44.521,2,44.521s0,0,1.372,1.397
	c0.657,0.641,1.83,1.47,2.846,2.126c-0.88-0.336-1.734-0.449-1.734,0.297c0,1.477,9.274,9.301,9.274,9.301
	c4.984,4.445,11.046,5.653,11.046,5.653c2.831,1.354,13.859,2.031,13.859,2.031c4.741-0.13,5.141,1.347,5.141,1.347
	c1.632,1.085,5.801,0,6.218-0.261c0.382-0.27,3.369-0.947,3.369-0.947c1.32-0.269,1.32-1.354,1.32-1.354
	c11.602,4.186,17.124,0.147,17.124,0.147c1.736-0.538,1.354-1.207,1.354-1.207c-1.216-0.416-1.876-1.893-1.876-1.893
	c0.417-0.121,1.077-1.885,1.077-1.885c0.243,0.539,4.168-1.207,4.168-1.207c6.2,11.984,10.386,12.661,10.386,12.661
	c2.813,2.423,8.059,2.275,8.059,2.275l-1.181-1.207c-2.015-1.207-2.97-5.384-2.97-5.384c-0.695-6.6-2.588-8.893-2.588-8.893
	c-2.153-5.679-0.66-6.209-0.66-6.209c1.077-0.946,2.293-3.916,2.293-3.916c5.661-8.085,4.862-11.081,4.862-11.081
	c-0.156-1.511,1.198-1.329,1.198-1.329c0.921-0.556,1.998-0.147,1.998-0.147C97.157,33.101,92.433,32.953,92.433,32.953z
	 M13.167,44.667c-1.935,0-1.935-3,0-3S15.102,44.667,13.167,44.667z"/>
</svg>
