<?xml version="1.0" encoding="utf-8"?>
<!-- Generator: Adobe Illustrator 16.0.0, SVG Export Plug-In . SVG Version: 6.00 Build 0)  -->
<!DOCTYPE svg PUBLIC "-//W3C//DTD SVG 1.1//EN" "http://www.w3.org/Graphics/SVG/1.1/DTD/svg11.dtd">
<svg version="1.1" id="Layer_1" xmlns="http://www.w3.org/2000/svg" xmlns:xlink="http://www.w3.org/1999/xlink" x="0px" y="0px"
	 width="100px" height="100px" viewBox="0 0 100 100" enable-background="new 0 0 100 100" xml:space="preserve">
<g id="Your_Icon_1_">
	<path fill="#010101" d="M98.328,58.432c-0.622-4.475-4.148-10.002-4.148-10.002c2.904-5.264,2.904-6.713,2.904-6.713
		c1.246-11.979-15.148,0-15.148,0c-17.642,8.028-33.416-4.607-28.02-1.974c5.398,2.633,6.643-0.265,6.436-0.527
		C60.143,38.953,60.35,25,54.331,25c-6.019,0-8.302,4.475-14.32,8.95c-6.018,4.475-10.169,2.369-12.867,3.423
		c-2.697,1.053-22.206,7.634-25.112,13.426c-2.905,5.791,1.245,7.633,1.245,7.633c2.272,3.672,17.433,6.582,17.435,6.582
		c3.943,0.526,7.886,3.158,9.547,2.368c1.66-0.789,9.754-0.789,9.754-0.789c6.019,8.95,10.792,7.107,10.792,7.107
		c4.773-2.634-1.135-10.269-1.135-10.269c4.051-2.104,7.361-0.789,7.361-0.789c9.962,8.951,13.074,6.055,13.074,6.055
		c3.734-5.264-0.623-12.108-0.623-12.108c6.848-3.159,13.281,1.843,13.281,1.843C99.158,66.855,98.328,58.432,98.328,58.432z
		 M11,49.5c-1.935,0-1.935-3,0-3S12.935,49.5,11,49.5z"/>
</g>
</svg>
