<?xml version="1.0" encoding="utf-8"?>
<!-- Generator: Adobe Illustrator 16.0.0, SVG Export Plug-In . SVG Version: 6.00 Build 0)  -->
<!DOCTYPE svg PUBLIC "-//W3C//DTD SVG 1.1//EN" "http://www.w3.org/Graphics/SVG/1.1/DTD/svg11.dtd">
<svg version="1.1" id="Layer_1" xmlns="http://www.w3.org/2000/svg" xmlns:xlink="http://www.w3.org/1999/xlink" x="0px" y="0px"
	 width="100px" height="100px" viewBox="0 0 100 100" enable-background="new 0 0 100 100" xml:space="preserve">
<g id="Captions">
</g>
<g id="Your_Icon">
	<path d="M82.918,46.956c-26.885-7.908-29.521-11.334-29.521-11.334c3.428-8.171,25.832-8.435,25.832-8.435
		c-28.996-1.581-34.267,7.38-34.267,7.38c-5.009-1.845-12.916-1.317-12.916-1.317c-3.954-3.427-5.798-4.482-6.853-4.745
		c-1.055-0.263-1.845,8.171-1.845,7.38s-23.723,6.853-22.141,9.752c0.771,1.411,2.101,2.068,3.266,2.375
		c-5.375-0.524-3.341,0.525-3.342,0.525c6.251,8.699,20.372,10.279,20.372,10.279c3.163,4.744,6.326,4.744,6.326,4.744l-0.791-4.217
		c6.062,2.11,19.769,1.055,19.769,1.055c11.597,19.506,32.684,13.18,32.684,13.18c-23.459-0.527-26.358-13.971-26.358-13.971
		c4.48-7.381,30.84-8.17,30.84-8.17C96.359,70.414,99,68.701,96.889,64.879c-1.27-2.294-3.617-1.904-5.535-13.97
		c-1.846-11.598,3.842-12.351,6.853-18.796C103.214,21.389,82.918,46.956,82.918,46.956z M10.5,44.75c-1.935,0-1.935-3,0-3
		S12.435,44.75,10.5,44.75z"/>
</g>
</svg>
