<?xml version="1.0" encoding="utf-8"?>
<!-- Generator: Adobe Illustrator 16.0.0, SVG Export Plug-In . SVG Version: 6.00 Build 0)  -->
<!DOCTYPE svg PUBLIC "-//W3C//DTD SVG 1.1//EN" "http://www.w3.org/Graphics/SVG/1.1/DTD/svg11.dtd">
<svg version="1.1" id="Layer_1" xmlns="http://www.w3.org/2000/svg" xmlns:xlink="http://www.w3.org/1999/xlink" x="0px" y="0px"
	 width="100px" height="100px" viewBox="0 0 100 100" enable-background="new 0 0 100 100" xml:space="preserve">
<g id="Your_Icon">
	<path fill="#010101" d="M95.861,67.802C83.486,57.51,83.854,54.079,83.854,54.079c0.115-0.101,0.228-0.2,0.34-0.3
		c11.549-10.278,13.873-13.422,13.873-13.422c-2.818-3.676-23.893,10.537-23.893,10.537c-0.178-0.12-0.354-0.237-0.531-0.352
		c-9.67-6.238-20.42-5.529-20.42-5.529c-13.969-1.716-29.529-9.391-29.529-9.391c-2.941-1.671-5.392-1.147-5.392-1.147
		C9.724,39.376,6.417,45.013,6.417,45.013c-6.495-0.245-4.167,15.439-4.165,15.439c5.514,6.614,16.541,4.409,16.541,4.409
		c8.454,10.537,10.17,9.068,10.17,9.068c1.347-0.615-4.901-9.682-4.901-9.682c1.167,2.102,17.771-0.243,19.35-0.471
		c-0.463,0.409,7.925,6.802,6.993,3.535c-0.051-0.18-0.09-0.351-0.115-0.513c-0.467-2.969,3.057-3.407,3.057-3.407
		c10.905,0.243,12.864-1.104,12.864-1.104c5.271-2.328,10.048-4.411,10.048-4.411C80.301,61.186,108.236,78.096,95.861,67.802z
		 M13.125,44.25c-1.935,0-1.935-3,0-3S15.06,44.25,13.125,44.25z"/>
</g>
</svg>
