<?xml version="1.0" encoding="utf-8"?>
<!-- Generator: Adobe Illustrator 16.0.0, SVG Export Plug-In . SVG Version: 6.00 Build 0)  -->
<!DOCTYPE svg PUBLIC "-//W3C//DTD SVG 1.1//EN" "http://www.w3.org/Graphics/SVG/1.1/DTD/svg11.dtd">
<svg version="1.1" id="Layer_1" xmlns="http://www.w3.org/2000/svg" xmlns:xlink="http://www.w3.org/1999/xlink" x="0px" y="0px"
	 width="100px" height="100px" viewBox="0 0 100 100" enable-background="new 0 0 100 100" xml:space="preserve">
<path fill="#010101" d="M93.418,31.631c-4.64-0.277-8.582,7.632-8.582,7.632c-3.951,6.266-6.541,4.084-6.541,4.084
	c-2.04-0.271-2.723-1.499-2.723-1.499c2.045-1.224,2.86-8.446,2.86-8.446c1.092-2.179,2.855-4.086,2.855-4.086
	c1.229-1.093,1.494-3,1.494-3c-1.773,2.18-9.938,4.907-9.938,4.907c-2.32,0.273-13.612-1.086-13.612-1.086
	C43.29,28.366,33.75,30.951,33.75,30.951c-4.772,0-14.709,4.632-14.709,4.632c-8.453,5.45-17.024,7.759-17.024,7.759
	s0,0,1.366,1.347c0.654,0.654,1.848,1.5,2.88,2.164c-0.904-0.347-1.789-0.468-1.789,0.298c0,1.494,9.396,9.397,9.396,9.397
	c5.047,4.497,11.166,5.72,11.166,5.72c2.865,1.362,14.031,2.045,14.031,2.045c4.762-0.143,5.174,1.36,5.174,1.36
	c1.633,1.091,5.857,0,6.271-0.273c0.413-0.267,3.406-0.954,3.406-0.954c1.37-0.267,1.361-1.361,1.361-1.361
	c11.716,4.226,17.298,0.132,17.298,0.132c1.77-0.535,1.366-1.219,1.366-1.219c-1.228-0.407-1.916-1.906-1.916-1.906
	c0.413-0.133,1.092-1.906,1.092-1.906c0.279,0.545,4.227-1.229,4.227-1.229c6.261,12.12,10.491,12.808,10.491,12.808
	c2.855,2.446,8.173,2.315,8.173,2.315l-1.228-1.225c-2.045-1.229-2.999-5.45-2.999-5.45c-0.688-6.674-2.595-8.988-2.595-8.988
	c-2.178-5.721-0.684-6.267-0.684-6.267c1.087-0.948,2.32-3.946,2.32-3.946c5.725-8.168,4.909-11.19,4.909-11.19
	c-0.137-1.514,1.219-1.344,1.219-1.344c0.954-0.543,2.045-0.13,2.045-0.13C98.185,31.771,93.418,31.631,93.418,31.631z
	 M13.333,43.167c-1.935,0-1.935-3,0-3S15.268,43.167,13.333,43.167z"/>
</svg>
